<svg width="183" height="22" viewBox="0 0 183 22" fill="none" xmlns="http://www.w3.org/2000/svg">
<path d="M15.7383 8.22656L15.0469 8.68359C14.625 8.05859 14.0742 7.56641 13.3945 7.20703C12.7227 6.83984 11.9922 6.65625 11.2031 6.65625C9.92188 6.65625 8.82812 7.10938 7.92188 8.01562C7.01562 8.92188 6.5625 10.0156 6.5625 11.2969C6.5625 12.5781 7.01562 13.6719 7.92188 14.5781C8.82812 15.4844 9.92188 15.9375 11.2031 15.9375C11.9922 15.9375 12.7227 15.7539 13.3945 15.3867C14.0742 15.0195 14.625 14.5234 15.0469 13.8984L15.7266 14.3906C15.2266 15.125 14.5781 15.707 13.7812 16.1367C12.9844 16.5664 12.125 16.7812 11.2031 16.7812C10.4609 16.7812 9.75 16.6367 9.07031 16.3477C8.39844 16.0586 7.81641 15.668 7.32422 15.1758C6.83203 14.6836 6.44141 14.1016 6.15234 13.4297C5.86328 12.75 5.71875 12.0391 5.71875 11.2969C5.71875 10.5547 5.86328 9.84766 6.15234 9.17578C6.44141 8.49609 6.83203 7.91016 7.32422 7.41797C7.81641 6.92578 8.39844 6.53516 9.07031 6.24609C9.75 5.95703 10.4609 5.8125 11.2031 5.8125C12.1328 5.8125 12.9961 6.03125 13.793 6.46875C14.5898 6.89844 15.2383 7.48438 15.7383 8.22656ZM17.1328 7.26562L16.4297 7.72266C15.8516 6.87891 15.1016 6.21094 14.1797 5.71875C13.2656 5.21875 12.2734 4.96875 11.2031 4.96875C10.0547 4.96875 8.99609 5.25391 8.02734 5.82422C7.05859 6.38672 6.28906 7.15234 5.71875 8.12109C5.15625 9.08984 4.875 10.1484 4.875 11.2969C4.875 12.4453 5.15625 13.5039 5.71875 14.4727C6.28906 15.4414 7.05859 16.2109 8.02734 16.7812C8.99609 17.3438 10.0547 17.625 11.2031 17.625C12.2734 17.625 13.2695 17.375 14.1914 16.875C15.1133 16.375 15.8633 15.6992 16.4414 14.8477L17.1328 15.3281C16.4766 16.2969 15.625 17.0625 14.5781 17.625C13.5391 18.1875 12.4141 18.4688 11.2031 18.4688C9.90625 18.4688 8.70703 18.1484 7.60547 17.5078C6.50391 16.8672 5.63281 15.9961 4.99219 14.8945C4.35156 13.793 4.03125 12.5938 4.03125 11.2969C4.03125 10 4.35156 8.80078 4.99219 7.69922C5.63281 6.59766 6.50391 5.72656 7.60547 5.08594C8.70703 4.44531 9.90625 4.125 11.2031 4.125C12.4141 4.125 13.5391 4.40625 14.5781 4.96875C15.625 5.53125 16.4766 6.29688 17.1328 7.26562ZM18.5391 6.32812L17.8359 6.78516C17.1016 5.70703 16.1484 4.85547 14.9766 4.23047C13.8125 3.59766 12.5547 3.28125 11.2031 3.28125C10.1172 3.28125 9.07812 3.49219 8.08594 3.91406C7.09375 4.33594 6.23828 4.90625 5.51953 5.625C4.80859 6.33594 4.24219 7.1875 3.82031 8.17969C3.39844 9.17188 3.1875 10.2109 3.1875 11.2969C3.1875 12.3828 3.39844 13.4219 3.82031 14.4141C4.24219 15.4062 4.80859 16.2617 5.51953 16.9805C6.23828 17.6914 7.09375 18.2578 8.08594 18.6797C9.07812 19.1016 10.1172 19.3125 11.2031 19.3125C12.5625 19.3125 13.8242 18.9961 14.9883 18.3633C16.1523 17.7305 17.1016 16.875 17.8359 15.7969L18.5156 16.3008C17.7031 17.4883 16.6523 18.4297 15.3633 19.125C14.082 19.8125 12.6953 20.1562 11.2031 20.1562C9.60156 20.1562 8.12109 19.7617 6.76172 18.9727C5.40234 18.1758 4.32422 17.0977 3.52734 15.7383C2.73828 14.3789 2.34375 12.8984 2.34375 11.2969C2.34375 9.69531 2.73828 8.21484 3.52734 6.85547C4.32422 5.49609 5.40234 4.42188 6.76172 3.63281C8.12109 2.83594 9.60156 2.4375 11.2031 2.4375C12.7031 2.4375 14.0977 2.78906 15.3867 3.49219C16.6758 4.1875 17.7266 5.13281 18.5391 6.32812ZM19.9219 5.36719L19.2188 5.82422C18.3281 4.51953 17.1758 3.48828 15.7617 2.73047C14.3555 1.97266 12.8359 1.59375 11.2031 1.59375C9.89062 1.59375 8.63281 1.85156 7.42969 2.36719C6.23438 2.875 5.20312 3.5625 4.33594 4.42969C3.46875 5.29688 2.77734 6.33203 2.26172 7.53516C1.75391 8.73047 1.5 9.98438 1.5 11.2969C1.5 12.6094 1.75391 13.8672 2.26172 15.0703C2.77734 16.2656 3.46875 17.2969 4.33594 18.1641C5.20312 19.0312 6.23438 19.7227 7.42969 20.2383C8.63281 20.7461 9.89062 21 11.2031 21C12.8359 21 14.3594 20.6172 15.7734 19.8516C17.1875 19.0859 18.3398 18.0508 19.2305 16.7461L19.9102 17.2617C18.9414 18.668 17.6914 19.7852 16.1602 20.6133C14.6289 21.4336 12.9766 21.8438 11.2031 21.8438C9.77344 21.8438 8.40625 21.5625 7.10156 21C5.80469 20.4453 4.68359 19.6992 3.73828 18.7617C2.80078 17.8164 2.05078 16.6953 1.48828 15.3984C0.933594 14.0938 0.65625 12.7266 0.65625 11.2969C0.65625 9.86719 0.933594 8.50391 1.48828 7.20703C2.05078 5.90234 2.80078 4.78125 3.73828 3.84375C4.68359 2.89844 5.80469 2.14844 7.10156 1.59375C8.40625 1.03125 9.77344 0.75 11.2031 0.75C12.9844 0.75 14.6406 1.16406 16.1719 1.99219C17.7031 2.82031 18.9531 3.94531 19.9219 5.36719ZM27.9258 12.9375H33.0117C33.6836 12.9375 34.2539 12.7266 34.7227 12.3047C35.1914 11.8828 35.4258 11.2891 35.4258 10.5234C35.4258 9.96094 35.1797 9.45703 34.6875 9.01172C34.2031 8.56641 33.6445 8.34375 33.0117 8.34375H25.7695V21H24.9258V7.5H33.0117C33.8789 7.5 34.6367 7.80469 35.2852 8.41406C35.9414 9.02344 36.2695 9.72656 36.2695 10.5234C36.2695 11.5156 35.9531 12.3086 35.3203 12.9023C34.6875 13.4883 33.918 13.7812 33.0117 13.7812H27.9258V12.9375ZM27.9258 14.625H33.0117C34.1367 14.625 35.1016 14.2422 35.9062 13.4766C36.7109 12.7109 37.1133 11.7266 37.1133 10.5234C37.1133 9.5 36.7031 8.60156 35.8828 7.82812C35.0625 7.04688 34.1055 6.65625 33.0117 6.65625H24.082V21H23.2383V5.8125H33.0117C34.3398 5.8125 35.4961 6.28516 36.4805 7.23047C37.4648 8.16797 37.957 9.26562 37.957 10.5234C37.957 11.9297 37.4688 13.1055 36.4922 14.0508C35.5234 14.9961 34.3633 15.4688 33.0117 15.4688H27.9258V14.625ZM27.9258 16.3125H33.0117C34.0508 16.3125 35.0117 16.0625 35.8945 15.5625C36.7773 15.0625 37.4805 14.3672 38.0039 13.4766C38.5352 12.5859 38.8008 11.6016 38.8008 10.5234C38.8008 9.54688 38.5391 8.63281 38.0156 7.78125C37.4922 6.92188 36.7812 6.23828 35.8828 5.73047C34.9922 5.22266 34.0352 4.96875 33.0117 4.96875H22.3945V21H21.5508V4.125H33.0117C33.8945 4.125 34.7422 4.30078 35.5547 4.65234C36.375 4.99609 37.082 5.45703 37.6758 6.03516C38.2695 6.60547 38.7461 7.28516 39.1055 8.07422C39.4648 8.86328 39.6445 9.67969 39.6445 10.5234C39.6445 11.8906 39.332 13.0859 38.707 14.1094C38.082 15.125 37.2422 15.8984 36.1875 16.4297L37.957 21H37.0547L35.3789 16.7695C35.168 16.8398 34.9219 16.9102 34.6406 16.9805L36.2227 21H35.3203L33.7734 17.1211C33.5312 17.1445 33.2773 17.1562 33.0117 17.1562L34.5 21H33.6094L32.1328 17.1562H31.3711L32.7891 21H31.8984L30.4688 17.1562H27.9258V16.3125ZM27.457 21H26.6133V9.1875H33.0117C33.4492 9.1875 33.8203 9.32031 34.125 9.58594C34.4297 9.84375 34.582 10.1562 34.582 10.5234C34.582 11.5703 34.0586 12.0938 33.0117 12.0938H27.9258V11.25H33.0117C33.4961 11.25 33.7383 11.0078 33.7383 10.5234C33.7383 10.3906 33.6641 10.2773 33.5156 10.1836C33.375 10.082 33.207 10.0312 33.0117 10.0312H27.457V21ZM45.7383 21H44.8945V4.125H45.7383V21ZM44.0508 21H43.207V4.125H44.0508V21ZM42.3633 21H41.5195V4.125H42.3633V21ZM47.4258 16.7812H55.5V17.625H47.4258V18.4688H55.5V19.3125H47.4258V20.1562H55.5V21H46.582V4.125H55.5V4.96875H47.4258V5.8125H55.5V6.65625H47.4258V7.5H55.5V8.34375H47.4258V10.4414H55.0312V11.2852H47.4258V12.1289H55.0312V12.9727H47.4258V13.8164H55.0312V14.6602H47.4258V16.7812ZM69.5039 12.6797C69.5039 11.6797 69.1953 10.9062 68.5781 10.3594C67.9609 9.8125 67.1445 9.53906 66.1289 9.53906C65.2695 9.53906 64.5312 9.83594 63.9141 10.4297C63.2969 11.0234 62.9883 11.7344 62.9883 12.5625C62.9883 13.0312 63.0508 13.4531 63.1758 13.8281C63.3008 14.1953 63.4688 14.5039 63.6797 14.7539C63.8984 14.9961 64.1562 15.1992 64.4531 15.3633C64.75 15.5195 65.0586 15.6328 65.3789 15.7031C65.707 15.7734 66.0547 15.8086 66.4219 15.8086C67.3125 15.8086 68.125 15.5898 68.8594 15.1523V15.9961C68.1016 16.3945 67.2852 16.5938 66.4102 16.5938C65.8477 16.5938 65.3164 16.5195 64.8164 16.3711C64.3242 16.2148 63.875 15.9844 63.4688 15.6797C63.0625 15.3672 62.7383 14.9453 62.4961 14.4141C62.2617 13.875 62.1445 13.2578 62.1445 12.5625C62.1445 11.4844 62.5234 10.5703 63.2812 9.82031C64.0391 9.07031 64.9883 8.69531 66.1289 8.69531C67.3867 8.69531 68.4023 9.05078 69.1758 9.76172C69.957 10.4648 70.3477 11.4375 70.3477 12.6797V21H69.5039V12.6797ZM72.0352 12.6797V21H71.1914V12.6797C71.1914 11.2031 70.7188 10.0312 69.7734 9.16406C68.8281 8.28906 67.6133 7.85156 66.1289 7.85156C64.7539 7.85156 63.6055 8.30859 62.6836 9.22266C61.7617 10.1367 61.3008 11.25 61.3008 12.5625C61.3008 13.3594 61.4375 14.0742 61.7109 14.707C61.9922 15.3398 62.3711 15.8477 62.8477 16.2305C63.3242 16.6133 63.8555 16.9062 64.4414 17.1094C65.0352 17.3047 65.6602 17.4023 66.3164 17.4023C67.207 17.4023 68.0547 17.1953 68.8594 16.7812V17.6719C68.0156 18.0234 67.1641 18.1992 66.3047 18.1992C65.5312 18.1992 64.7969 18.082 64.1016 17.8477C63.4062 17.6055 62.7852 17.2578 62.2383 16.8047C61.6914 16.3438 61.2578 15.75 60.9375 15.0234C60.6172 14.2891 60.457 13.4688 60.457 12.5625C60.457 11.0234 61 9.71484 62.0859 8.63672C63.1797 7.55078 64.5273 7.00781 66.1289 7.00781C67.2539 7.00781 68.2617 7.23828 69.1523 7.69922C70.043 8.15234 70.7461 8.8125 71.2617 9.67969C71.7773 10.5469 72.0352 11.5469 72.0352 12.6797ZM73.7227 12.6797V21H72.8789V12.6797C72.8789 11.3906 72.582 10.25 71.9883 9.25781C71.4023 8.25781 70.5977 7.49219 69.5742 6.96094C68.5508 6.42969 67.4023 6.16406 66.1289 6.16406C64.918 6.16406 63.8125 6.45312 62.8125 7.03125C61.8125 7.60156 61.0273 8.375 60.457 9.35156C59.8945 10.3281 59.6133 11.3984 59.6133 12.5625C59.6133 13.5625 59.7969 14.4766 60.1641 15.3047C60.5312 16.125 61.0234 16.8008 61.6406 17.332C62.2656 17.8633 62.9727 18.2773 63.7617 18.5742C64.5586 18.8633 65.3906 19.0078 66.2578 19.0078C67.1406 19.0078 68.0078 18.8242 68.8594 18.457V19.3125C67.9688 19.6484 67.0938 19.8164 66.2344 19.8164C64.8828 19.8164 63.6406 19.5117 62.5078 18.9023C61.375 18.293 60.4688 17.4297 59.7891 16.3125C59.1094 15.1953 58.7695 13.9453 58.7695 12.5625C58.7695 11.5781 58.957 10.6406 59.332 9.75C59.7148 8.85938 60.2305 8.08984 60.8789 7.44141C61.5273 6.79297 62.3086 6.27734 63.2227 5.89453C64.1367 5.51172 65.1055 5.32031 66.1289 5.32031C67.5586 5.32031 68.8477 5.625 69.9961 6.23438C71.1523 6.84375 72.0625 7.71094 72.7266 8.83594C73.3906 9.96094 73.7227 11.2422 73.7227 12.6797ZM75.4102 12.6797V21H74.5664V12.6797C74.5664 11.0859 74.1953 9.66406 73.4531 8.41406C72.7109 7.15625 71.6992 6.1875 70.418 5.50781C69.1367 4.82031 67.707 4.47656 66.1289 4.47656C64.6133 4.47656 63.2266 4.83984 61.9688 5.56641C60.7109 6.29297 59.7227 7.27734 59.0039 8.51953C58.2852 9.75391 57.9258 11.1016 57.9258 12.5625C57.9258 13.5234 58.0781 14.4375 58.3828 15.3047C58.6953 16.1641 59.1172 16.918 59.6484 17.5664C60.1875 18.207 60.8047 18.7617 61.5 19.2305C62.2031 19.6992 62.957 20.0547 63.7617 20.2969C64.5742 20.5391 65.3984 20.6602 66.2344 20.6602C67.1562 20.6602 68.0312 20.4844 68.8594 20.1328V21C67.9922 21.3047 67.1016 21.457 66.1875 21.457C65.2422 21.457 64.3203 21.3242 63.4219 21.0586C62.5312 20.793 61.7031 20.4023 60.9375 19.8867C60.1797 19.3633 59.5117 18.75 58.9336 18.0469C58.3555 17.3359 57.9023 16.5078 57.5742 15.5625C57.2461 14.6172 57.082 13.6172 57.082 12.5625C57.082 11.3516 57.3086 10.1992 57.7617 9.10547C58.2227 8.00391 58.8477 7.05469 59.6367 6.25781C60.4336 5.45312 61.3945 4.81641 62.5195 4.34766C63.6523 3.87109 64.8555 3.63281 66.1289 3.63281C67.4258 3.63281 68.6445 3.85156 69.7852 4.28906C70.9258 4.72656 71.9102 5.33594 72.7383 6.11719C73.5664 6.89062 74.2188 7.84375 74.6953 8.97656C75.1719 10.1094 75.4102 11.3438 75.4102 12.6797ZM80.4844 8.80078H81.3281V21H80.4844V8.80078ZM77.1094 4.96875V4.125H89.7656V4.96875H77.1094ZM77.1094 6.65625V5.8125H89.7656V6.65625H77.1094ZM77.1094 8.34375V7.5H89.7656V8.34375H77.1094ZM85.5469 8.80078H86.3906V21H85.5469V8.80078ZM83.8594 8.80078H84.7031V21H83.8594V8.80078ZM82.1719 8.80078H83.0156V21H82.1719V8.80078ZM95.8477 21H95.0039V4.125H95.8477V21ZM94.1602 21H93.3164V4.125H94.1602V21ZM92.4727 21H91.6289V4.125H92.4727V21ZM97.5352 16.7812H105.609V17.625H97.5352V18.4688H105.609V19.3125H97.5352V20.1562H105.609V21H96.6914V4.125H105.609V4.96875H97.5352V5.8125H105.609V6.65625H97.5352V7.5H105.609V8.34375H97.5352V10.4414H105.141V11.2852H97.5352V12.1289H105.141V12.9727H97.5352V13.8164H105.141V14.6602H97.5352V16.7812ZM120.949 14.1914L120.105 12.6562V4.125H120.949V14.1914ZM122.637 17.1094L121.793 15.6797V4.125H122.637V17.1094ZM111.012 10.9336L111.855 12.4688V21H111.012V10.9336ZM109.324 7.89844L110.168 9.44531V21H109.324V7.89844ZM109.617 4.125H110.602L120.375 21H119.391L109.617 4.125ZM111.609 4.125H112.605L122.367 21H121.359L111.609 4.125ZM113.59 4.125H114.574L123.48 19.5352V4.125H124.324V21H123.328L113.59 4.125ZM108.48 5.57812V21H107.637V4.125H108.645L118.383 21H117.41L108.48 5.57812ZM138.504 12.6797C138.504 11.6797 138.195 10.9062 137.578 10.3594C136.961 9.8125 136.145 9.53906 135.129 9.53906C134.27 9.53906 133.531 9.83594 132.914 10.4297C132.297 11.0234 131.988 11.7344 131.988 12.5625C131.988 13.0312 132.051 13.4531 132.176 13.8281C132.301 14.1953 132.469 14.5039 132.68 14.7539C132.898 14.9961 133.156 15.1992 133.453 15.3633C133.75 15.5195 134.059 15.6328 134.379 15.7031C134.707 15.7734 135.055 15.8086 135.422 15.8086C136.312 15.8086 137.125 15.5898 137.859 15.1523V15.9961C137.102 16.3945 136.285 16.5938 135.41 16.5938C134.848 16.5938 134.316 16.5195 133.816 16.3711C133.324 16.2148 132.875 15.9844 132.469 15.6797C132.062 15.3672 131.738 14.9453 131.496 14.4141C131.262 13.875 131.145 13.2578 131.145 12.5625C131.145 11.4844 131.523 10.5703 132.281 9.82031C133.039 9.07031 133.988 8.69531 135.129 8.69531C136.387 8.69531 137.402 9.05078 138.176 9.76172C138.957 10.4648 139.348 11.4375 139.348 12.6797V21H138.504V12.6797ZM141.035 12.6797V21H140.191V12.6797C140.191 11.2031 139.719 10.0312 138.773 9.16406C137.828 8.28906 136.613 7.85156 135.129 7.85156C133.754 7.85156 132.605 8.30859 131.684 9.22266C130.762 10.1367 130.301 11.25 130.301 12.5625C130.301 13.3594 130.438 14.0742 130.711 14.707C130.992 15.3398 131.371 15.8477 131.848 16.2305C132.324 16.6133 132.855 16.9062 133.441 17.1094C134.035 17.3047 134.66 17.4023 135.316 17.4023C136.207 17.4023 137.055 17.1953 137.859 16.7812V17.6719C137.016 18.0234 136.164 18.1992 135.305 18.1992C134.531 18.1992 133.797 18.082 133.102 17.8477C132.406 17.6055 131.785 17.2578 131.238 16.8047C130.691 16.3438 130.258 15.75 129.938 15.0234C129.617 14.2891 129.457 13.4688 129.457 12.5625C129.457 11.0234 130 9.71484 131.086 8.63672C132.18 7.55078 133.527 7.00781 135.129 7.00781C136.254 7.00781 137.262 7.23828 138.152 7.69922C139.043 8.15234 139.746 8.8125 140.262 9.67969C140.777 10.5469 141.035 11.5469 141.035 12.6797ZM142.723 12.6797V21H141.879V12.6797C141.879 11.3906 141.582 10.25 140.988 9.25781C140.402 8.25781 139.598 7.49219 138.574 6.96094C137.551 6.42969 136.402 6.16406 135.129 6.16406C133.918 6.16406 132.812 6.45312 131.812 7.03125C130.812 7.60156 130.027 8.375 129.457 9.35156C128.895 10.3281 128.613 11.3984 128.613 12.5625C128.613 13.5625 128.797 14.4766 129.164 15.3047C129.531 16.125 130.023 16.8008 130.641 17.332C131.266 17.8633 131.973 18.2773 132.762 18.5742C133.559 18.8633 134.391 19.0078 135.258 19.0078C136.141 19.0078 137.008 18.8242 137.859 18.457V19.3125C136.969 19.6484 136.094 19.8164 135.234 19.8164C133.883 19.8164 132.641 19.5117 131.508 18.9023C130.375 18.293 129.469 17.4297 128.789 16.3125C128.109 15.1953 127.77 13.9453 127.77 12.5625C127.77 11.5781 127.957 10.6406 128.332 9.75C128.715 8.85938 129.23 8.08984 129.879 7.44141C130.527 6.79297 131.309 6.27734 132.223 5.89453C133.137 5.51172 134.105 5.32031 135.129 5.32031C136.559 5.32031 137.848 5.625 138.996 6.23438C140.152 6.84375 141.062 7.71094 141.727 8.83594C142.391 9.96094 142.723 11.2422 142.723 12.6797ZM144.41 12.6797V21H143.566V12.6797C143.566 11.0859 143.195 9.66406 142.453 8.41406C141.711 7.15625 140.699 6.1875 139.418 5.50781C138.137 4.82031 136.707 4.47656 135.129 4.47656C133.613 4.47656 132.227 4.83984 130.969 5.56641C129.711 6.29297 128.723 7.27734 128.004 8.51953C127.285 9.75391 126.926 11.1016 126.926 12.5625C126.926 13.5234 127.078 14.4375 127.383 15.3047C127.695 16.1641 128.117 16.918 128.648 17.5664C129.188 18.207 129.805 18.7617 130.5 19.2305C131.203 19.6992 131.957 20.0547 132.762 20.2969C133.574 20.5391 134.398 20.6602 135.234 20.6602C136.156 20.6602 137.031 20.4844 137.859 20.1328V21C136.992 21.3047 136.102 21.457 135.188 21.457C134.242 21.457 133.32 21.3242 132.422 21.0586C131.531 20.793 130.703 20.4023 129.938 19.8867C129.18 19.3633 128.512 18.75 127.934 18.0469C127.355 17.3359 126.902 16.5078 126.574 15.5625C126.246 14.6172 126.082 13.6172 126.082 12.5625C126.082 11.3516 126.309 10.1992 126.762 9.10547C127.223 8.00391 127.848 7.05469 128.637 6.25781C129.434 5.45312 130.395 4.81641 131.52 4.34766C132.652 3.87109 133.855 3.63281 135.129 3.63281C136.426 3.63281 137.645 3.85156 138.785 4.28906C139.926 4.72656 140.91 5.33594 141.738 6.11719C142.566 6.89062 143.219 7.84375 143.695 8.97656C144.172 10.1094 144.41 11.3438 144.41 12.6797ZM152.871 12.9375H157.957C158.629 12.9375 159.199 12.7266 159.668 12.3047C160.137 11.8828 160.371 11.2891 160.371 10.5234C160.371 9.96094 160.125 9.45703 159.633 9.01172C159.148 8.56641 158.59 8.34375 157.957 8.34375H150.715V21H149.871V7.5H157.957C158.824 7.5 159.582 7.80469 160.23 8.41406C160.887 9.02344 161.215 9.72656 161.215 10.5234C161.215 11.5156 160.898 12.3086 160.266 12.9023C159.633 13.4883 158.863 13.7812 157.957 13.7812H152.871V12.9375ZM152.871 14.625H157.957C159.082 14.625 160.047 14.2422 160.852 13.4766C161.656 12.7109 162.059 11.7266 162.059 10.5234C162.059 9.5 161.648 8.60156 160.828 7.82812C160.008 7.04688 159.051 6.65625 157.957 6.65625H149.027V21H148.184V5.8125H157.957C159.285 5.8125 160.441 6.28516 161.426 7.23047C162.41 8.16797 162.902 9.26562 162.902 10.5234C162.902 11.9297 162.414 13.1055 161.438 14.0508C160.469 14.9961 159.309 15.4688 157.957 15.4688H152.871V14.625ZM152.871 16.3125H157.957C158.996 16.3125 159.957 16.0625 160.84 15.5625C161.723 15.0625 162.426 14.3672 162.949 13.4766C163.48 12.5859 163.746 11.6016 163.746 10.5234C163.746 9.54688 163.484 8.63281 162.961 7.78125C162.438 6.92188 161.727 6.23828 160.828 5.73047C159.938 5.22266 158.98 4.96875 157.957 4.96875H147.34V21H146.496V4.125H157.957C158.84 4.125 159.688 4.30078 160.5 4.65234C161.32 4.99609 162.027 5.45703 162.621 6.03516C163.215 6.60547 163.691 7.28516 164.051 8.07422C164.41 8.86328 164.59 9.67969 164.59 10.5234C164.59 11.8906 164.277 13.0859 163.652 14.1094C163.027 15.125 162.188 15.8984 161.133 16.4297L162.902 21H162L160.324 16.7695C160.113 16.8398 159.867 16.9102 159.586 16.9805L161.168 21H160.266L158.719 17.1211C158.477 17.1445 158.223 17.1562 157.957 17.1562L159.445 21H158.555L157.078 17.1562H156.316L157.734 21H156.844L155.414 17.1562H152.871V16.3125ZM152.402 21H151.559V9.1875H157.957C158.395 9.1875 158.766 9.32031 159.07 9.58594C159.375 9.84375 159.527 10.1562 159.527 10.5234C159.527 11.5703 159.004 12.0938 157.957 12.0938H152.871V11.25H157.957C158.441 11.25 158.684 11.0078 158.684 10.5234C158.684 10.3906 158.609 10.2773 158.461 10.1836C158.32 10.082 158.152 10.0312 157.957 10.0312H152.402V21ZM181.781 4.125H182.625L177.316 15.3047V21H176.473V15.3047L181.781 4.125ZM180.094 4.125H180.938L175.629 15.3047V21H174.785V15.3047L180.094 4.125ZM178.406 4.125H179.25L173.941 15.3047V21H173.098V15.3047L178.406 4.125ZM176.719 4.125H177.562L172.254 15.3047V21H171.41V15.3047L165.75 4.125H166.594L171.82 14.4492L176.719 4.125ZM167.449 4.125H168.293L172.477 12.082L172.055 13.0078L167.449 4.125ZM169.137 4.125H169.992L173.32 10.2305L172.887 11.1562L169.137 4.125ZM170.848 4.125H171.691L174.164 8.39062L173.742 9.31641L170.848 4.125Z" fill="#F8F9FB"/>
</svg>
