<svg width="19" height="34" viewBox="0 0 19 34" fill="none" xmlns="http://www.w3.org/2000/svg">
<path d="M0.938789 3.06139C0.799425 2.92203 0.688875 2.75657 0.613451 2.57449C0.538027 2.3924 0.499205 2.19723 0.499205 2.00014C0.499205 1.80305 0.538027 1.60789 0.613451 1.4258C0.688875 1.24371 0.799425 1.07825 0.938789 0.938889C1.07816 0.799526 1.24361 0.688976 1.4257 0.613552C1.60779 0.538128 1.80295 0.499306 2.00004 0.499306C2.19713 0.499306 2.3923 0.538128 2.57438 0.613552C2.75647 0.688976 2.92193 0.799526 3.06129 0.938889L18.0613 15.9389C18.2008 16.0782 18.3114 16.2436 18.3869 16.4257C18.4624 16.6078 18.5012 16.803 18.5012 17.0001C18.5012 17.1973 18.4624 17.3925 18.3869 17.5746C18.3114 17.7566 18.2008 17.9221 18.0613 18.0614L3.06129 33.0614C2.77983 33.3429 2.39809 33.501 2.00004 33.501C1.602 33.501 1.22025 33.3429 0.938789 33.0614C0.65733 32.7799 0.499205 32.3982 0.499205 32.0001C0.499205 31.6021 0.65733 31.2204 0.938789 30.9389L14.8794 17.0001L0.938789 3.06139Z" fill="#F8F9FB"/>
</svg>
